<svg xmlns="http://www.w3.org/2000/svg" width="32" height="32" viewBox="0 0 32 32" role="img" aria-labelledby="title desc">
  <title id="title">CodeFlow icon</title>
  <desc id="desc">A compact workflow path with connected execution nodes.</desc>
  <defs>
    <linearGradient id="cf-bg" x1="5" y1="4" x2="28" y2="29" gradientUnits="userSpaceOnUse">
      <stop offset="0" stop-color="#1b2340"/>
      <stop offset="0.55" stop-color="#121722"/>
      <stop offset="1" stop-color="#0d1117"/>
    </linearGradient>
    <linearGradient id="cf-accent" x1="7" y1="8" x2="25" y2="24" gradientUnits="userSpaceOnUse">
      <stop offset="0" stop-color="#8f7bff"/>
      <stop offset="0.52" stop-color="#58a6ff"/>
      <stop offset="1" stop-color="#06d6a0"/>
    </linearGradient>
  </defs>
  <rect x="2" y="2" width="28" height="28" rx="7" fill="url(#cf-bg)"/>
  <rect x="2.5" y="2.5" width="27" height="27" rx="6.5" fill="none" stroke="#2d3748"/>
  <path d="M8 11h5.4c1.5 0 2.6 1.1 2.6 2.6v4.8c0 1.5 1.1 2.6 2.6 2.6H24" fill="none" stroke="url(#cf-accent)" stroke-width="2.4" stroke-linecap="round"/>
  <path d="M16 13.2c0-1.4 1.1-2.2 2.4-2.2H24" fill="none" stroke="#58a6ff" stroke-width="1.8" stroke-linecap="round" opacity="0.78"/>
  <circle cx="8" cy="11" r="3.1" fill="#10151f" stroke="#8f7bff" stroke-width="2"/>
  <circle cx="16" cy="16" r="3.1" fill="#10151f" stroke="#58a6ff" stroke-width="2"/>
  <circle cx="24" cy="11" r="2.7" fill="#10151f" stroke="#58a6ff" stroke-width="1.8"/>
  <circle cx="24" cy="21" r="3.1" fill="#10151f" stroke="#06d6a0" stroke-width="2"/>
  <path d="m22.8 19.8 1.2 1.2 2-2.3" fill="none" stroke="#d8fff1" stroke-width="1.5" stroke-linecap="round" stroke-linejoin="round"/>
</svg>
